<svg width="1826" height="523" viewBox="0 0 1826 523" fill="none" xmlns="http://www.w3.org/2000/svg">
<g clip-path="url(#clip0_15_8)">
<path d="M34.9337 192.04C34.9337 158.76 42.1338 129.16 56.5338 103.24C70.9338 77 90.9338 56.68 116.534 42.28C142.454 27.56 171.734 20.2 204.374 20.2C244.374 20.2 278.614 30.76 307.094 51.88C335.574 73 354.614 101.8 364.214 138.28H273.974C267.254 124.2 257.654 113.48 245.174 106.12C233.014 98.76 219.094 95.08 203.414 95.08C178.134 95.08 157.654 103.88 141.974 121.48C126.294 139.08 118.454 162.6 118.454 192.04C118.454 221.48 126.294 245 141.974 262.6C157.654 280.2 178.134 289 203.414 289C219.094 289 233.014 285.32 245.174 277.96C257.654 270.6 267.254 259.88 273.974 245.8H364.214C354.614 282.28 335.574 311.08 307.094 332.2C278.614 353 244.374 363.4 204.374 363.4C171.734 363.4 142.454 356.2 116.534 341.8C90.9338 327.08 70.9338 306.76 56.5338 280.84C42.1338 254.92 34.9337 225.32 34.9337 192.04ZM678.959 93.16V361H596.879V324.52C588.559 336.36 577.199 345.96 562.799 353.32C548.719 360.36 533.039 363.88 515.759 363.88C495.279 363.88 477.199 359.4 461.519 350.44C445.839 341.16 433.679 327.88 425.039 310.6C416.399 293.32 412.079 273 412.079 249.64V93.16H493.679V238.6C493.679 256.52 498.319 270.44 507.599 280.36C516.879 290.28 529.359 295.24 545.039 295.24C561.039 295.24 573.679 290.28 582.959 280.36C592.239 270.44 596.879 256.52 596.879 238.6V93.16H678.959ZM819.996 131.08C827.996 118.6 839.036 108.52 853.116 100.84C867.196 93.16 883.676 89.32 902.556 89.32C924.636 89.32 944.636 94.92 962.556 106.12C980.476 117.32 994.556 133.32 1004.8 154.12C1015.36 174.92 1020.64 199.08 1020.64 226.6C1020.64 254.12 1015.36 278.44 1004.8 299.56C994.556 320.36 980.476 336.52 962.556 348.04C944.636 359.24 924.636 364.84 902.556 364.84C883.996 364.84 867.516 361 853.116 353.32C839.036 345.64 827.996 335.72 819.996 323.56V488.68H737.916V93.16H819.996V131.08ZM937.116 226.6C937.116 206.12 931.356 190.12 919.836 178.6C908.636 166.76 894.716 160.84 878.076 160.84C861.756 160.84 847.836 166.76 836.316 178.6C825.116 190.44 819.516 206.6 819.516 227.08C819.516 247.56 825.116 263.72 836.316 275.56C847.836 287.4 861.756 293.32 878.076 293.32C894.396 293.32 908.316 287.4 919.836 275.56C931.356 263.4 937.116 247.08 937.116 226.6ZM1185.62 364.84C1159.38 364.84 1135.7 359.24 1114.58 348.04C1093.78 336.84 1077.3 320.84 1065.14 300.04C1053.3 279.24 1047.38 254.92 1047.38 227.08C1047.38 199.56 1053.46 175.4 1065.62 154.6C1077.78 133.48 1094.42 117.32 1115.54 106.12C1136.66 94.92 1160.34 89.32 1186.58 89.32C1212.82 89.32 1236.5 94.92 1257.62 106.12C1278.74 117.32 1295.38 133.48 1307.54 154.6C1319.7 175.4 1325.78 199.56 1325.78 227.08C1325.78 254.6 1319.54 278.92 1307.06 300.04C1294.9 320.84 1278.1 336.84 1256.66 348.04C1235.54 359.24 1211.86 364.84 1185.62 364.84ZM1185.62 293.8C1201.3 293.8 1214.58 288.04 1225.46 276.52C1236.66 265 1242.26 248.52 1242.26 227.08C1242.26 205.64 1236.82 189.16 1225.94 177.64C1215.38 166.12 1202.26 160.36 1186.58 160.36C1170.58 160.36 1157.3 166.12 1146.74 177.64C1136.18 188.84 1130.9 205.32 1130.9 227.08C1130.9 248.52 1136.02 265 1146.26 276.52C1156.82 288.04 1169.94 293.8 1185.62 293.8ZM1451.4 5.8V361H1369.32V5.8H1451.4ZM1494.57 226.6C1494.57 199.08 1499.69 174.92 1509.93 154.12C1520.49 133.32 1534.73 117.32 1552.65 106.12C1570.57 94.92 1590.57 89.32 1612.65 89.32C1631.53 89.32 1648.01 93.16 1662.09 100.84C1676.49 108.52 1687.53 118.6 1695.21 131.08V93.16H1777.29V361H1695.21V323.08C1687.21 335.56 1676.01 345.64 1661.61 353.32C1647.53 361 1631.05 364.84 1612.17 364.84C1590.41 364.84 1570.57 359.24 1552.65 348.04C1534.73 336.52 1520.49 320.36 1509.93 299.56C1499.69 278.44 1494.57 254.12 1494.57 226.6ZM1695.21 227.08C1695.21 206.6 1689.45 190.44 1677.93 178.6C1666.73 166.76 1652.97 160.84 1636.65 160.84C1620.33 160.84 1606.41 166.76 1594.89 178.6C1583.69 190.12 1578.09 206.12 1578.09 226.6C1578.09 247.08 1583.69 263.4 1594.89 275.56C1606.41 287.4 1620.33 293.32 1636.65 293.32C1652.97 293.32 1666.73 287.4 1677.93 275.56C1689.45 263.72 1695.21 247.56 1695.21 227.08Z" fill="#1B1B1B"/>
<path d="M1505.26 455.104H1533.93V472H1483.37V382.144H1505.26V455.104ZM1540.02 436.16C1540.02 428.821 1541.39 422.379 1544.12 416.832C1546.93 411.285 1550.73 407.019 1555.51 404.032C1560.29 401.045 1565.62 399.552 1571.51 399.552C1576.54 399.552 1580.94 400.576 1584.69 402.624C1588.53 404.672 1591.48 407.36 1593.53 410.688V400.576H1615.41V472H1593.53V461.888C1591.39 465.216 1588.41 467.904 1584.57 469.952C1580.81 472 1576.42 473.024 1571.38 473.024C1565.58 473.024 1560.29 471.531 1555.51 468.544C1550.73 465.472 1546.93 461.163 1544.12 455.616C1541.39 449.984 1540.02 443.499 1540.02 436.16ZM1593.53 436.288C1593.53 430.827 1591.99 426.517 1588.92 423.36C1585.93 420.203 1582.26 418.624 1577.91 418.624C1573.56 418.624 1569.85 420.203 1566.77 423.36C1563.79 426.432 1562.29 430.699 1562.29 436.16C1562.29 441.621 1563.79 445.973 1566.77 449.216C1569.85 452.373 1573.56 453.952 1577.91 453.952C1582.26 453.952 1585.93 452.373 1588.92 449.216C1591.99 446.059 1593.53 441.749 1593.53 436.288ZM1653.14 410.688C1655.18 407.36 1658.13 404.672 1661.97 402.624C1665.81 400.576 1670.2 399.552 1675.15 399.552C1681.04 399.552 1686.37 401.045 1691.15 404.032C1695.93 407.019 1699.69 411.285 1702.42 416.832C1705.23 422.379 1706.64 428.821 1706.64 436.16C1706.64 443.499 1705.23 449.984 1702.42 455.616C1699.69 461.163 1695.93 465.472 1691.15 468.544C1686.37 471.531 1681.04 473.024 1675.15 473.024C1670.12 473.024 1665.72 472.043 1661.97 470.08C1658.21 468.032 1655.27 465.344 1653.14 462.016V472H1631.25V377.28H1653.14V410.688ZM1684.37 436.16C1684.37 430.699 1682.83 426.432 1679.76 423.36C1676.77 420.203 1673.06 418.624 1668.62 418.624C1664.27 418.624 1660.56 420.203 1657.49 423.36C1654.5 426.517 1653.01 430.827 1653.01 436.288C1653.01 441.749 1654.5 446.059 1657.49 449.216C1660.56 452.373 1664.27 453.952 1668.62 453.952C1672.98 453.952 1676.69 452.373 1679.76 449.216C1682.83 445.973 1684.37 441.621 1684.37 436.16ZM1747.18 473.024C1740.95 473.024 1735.4 471.957 1730.54 469.824C1725.68 467.691 1721.84 464.789 1719.02 461.12C1716.2 457.365 1714.62 453.184 1714.28 448.576H1735.92C1736.17 451.051 1737.32 453.056 1739.37 454.592C1741.42 456.128 1743.94 456.896 1746.92 456.896C1749.65 456.896 1751.74 456.384 1753.2 455.36C1754.73 454.251 1755.5 452.843 1755.5 451.136C1755.5 449.088 1754.43 447.595 1752.3 446.656C1750.17 445.632 1746.71 444.523 1741.93 443.328C1736.81 442.133 1732.54 440.896 1729.13 439.616C1725.72 438.251 1722.77 436.16 1720.3 433.344C1717.82 430.443 1716.59 426.56 1716.59 421.696C1716.59 417.6 1717.7 413.888 1719.92 410.56C1722.22 407.147 1725.55 404.459 1729.9 402.496C1734.34 400.533 1739.58 399.552 1745.64 399.552C1754.6 399.552 1761.64 401.771 1766.76 406.208C1771.97 410.645 1774.96 416.533 1775.72 423.872H1755.5C1755.16 421.397 1754.05 419.435 1752.17 417.984C1750.38 416.533 1747.99 415.808 1745 415.808C1742.44 415.808 1740.48 416.32 1739.12 417.344C1737.75 418.283 1737.07 419.605 1737.07 421.312C1737.07 423.36 1738.13 424.896 1740.27 425.92C1742.49 426.944 1745.9 427.968 1750.51 428.992C1755.8 430.357 1760.11 431.723 1763.44 433.088C1766.76 434.368 1769.66 436.501 1772.14 439.488C1774.7 442.389 1776.02 446.315 1776.11 451.264C1776.11 455.445 1774.91 459.2 1772.52 462.528C1770.22 465.771 1766.85 468.331 1762.41 470.208C1758.06 472.085 1752.98 473.024 1747.18 473.024Z" fill="#1B1B1B"/>
</g>
<defs>
<clipPath id="clip0_15_8">
<rect width="1826" height="523" fill="white"/>
</clipPath>
</defs>
</svg>
